<?xml version="1.0" encoding="utf-8"?>
<!-- Generator: Adobe Illustrator 18.0.0, SVG Export Plug-In . SVG Version: 6.00 Build 0)  -->
<!DOCTYPE svg PUBLIC "-//W3C//DTD SVG 1.1//EN" "http://www.w3.org/Graphics/SVG/1.1/DTD/svg11.dtd">
<svg version="1.1" id="Layer_1" xmlns="http://www.w3.org/2000/svg" xmlns:xlink="http://www.w3.org/1999/xlink" x="0px" y="0px"
	 width="1400px" height="980px" viewBox="0 0 1400 980" enable-background="new 0 0 1400 980" xml:space="preserve">
<g>
	<path fill="#515750" d="M259.6,389.3h-1.4c-6.6,0-12-5.4-12-12v-32.5h25.4v32.5C271.6,383.9,266.3,389.3,259.6,389.3z"/>
	
		<rect x="260.4" y="385.2" transform="matrix(0.9865 -0.1639 0.1639 0.9865 -63.0037 48.9189)" fill="#1C0C0F" width="9.1" height="42.2"/>
	<path fill="#1C0C0F" d="M296.1,145.3l-48.5,54.1l0,0l-0.3,0.3c-0.1,0.1-0.2,0.2-0.3,0.3L145.7,311.6c12.2,21.8,32.3,38.6,56.5,46.6
		c9.9,3.3,20.6,5.1,31.6,5.1c55.8,0,101-45.2,101-101V175L296.1,145.3z"/>
	<path fill="#515750" d="M309.2,243.1c0.2-0.4,0.4-0.8,0.6-1.2l0,0l0,0c2.4-5,3.7-10.6,3.7-16.4c0-21.1-17.1-38.1-38.1-38.1
		c-11,0-20.8,4.6-27.8,12.1l0,0l-0.3,0.3c-0.1,0.1-0.2,0.2-0.3,0.3L55.1,411.2c8,8,20.3,10,30.4,5l166.1-82.6l0,0
		c9.5-4.3,17.3-11.6,22.2-20.7l0,0l0.1-0.3c0.3-0.6,0.6-1.2,0.9-1.8L309.2,243.1z"/>
	<path fill="#515750" d="M393.3,159.1h-62.8v-21.6h42.3c11.3,0,20.4,9.1,20.4,20.4V159.1z"/>
	<circle fill="#1C0C0F" cx="317.9" cy="161.3" r="27"/>
	<circle fill="#FFFFFF" stroke="#000000" stroke-miterlimit="10" cx="317.9" cy="151.5" r="7.6"/>
	<rect x="244.3" y="424.3" fill="#515750" width="59" height="7.4"/>
	<path fill="#1C0C0F" d="M303.3,424.3h0.4c3.9,0,7,3.1,7,7v0.4h-7.5V424.3z"/>
	<path fill="#1C0C0F" d="M243.9,424.3h0.4v7.5h-7.5v-0.4C236.9,427.4,240,424.3,243.9,424.3z"/>
</g>
<g>
	
		<rect x="541.8" y="344.2" transform="matrix(-0.8448 -0.5351 0.5351 -0.8448 812.4103 966.2333)" fill="#1C0C0F" width="9.1" height="42.2"/>
	<rect x="501.7" y="379.3" fill="#515750" width="59" height="7.4"/>
	<path fill="#1C0C0F" d="M501.7,379.3h-0.4c-3.9,0-7,3.1-7,7v0.4h7.5V379.3z"/>
	<path fill="#1C0C0F" d="M561.1,379.3h-0.4v7.5h7.5v-0.4C568.2,382.4,565,379.3,561.1,379.3z"/>
	<g>
		<path fill="#1C0C0F" d="M654.4,290.1L512.2,181c-26.5,16.9-44.1,46.6-44.1,80.4c0,52.7,42.7,95.4,95.4,95.4
			C606.1,356.7,642.2,328.7,654.4,290.1L654.4,290.1z"/>
	</g>
	<g>
		<path fill="#F6DB06" d="M474.3,270.9c10.7,41,47.9,71.3,92.3,71.3c0.8,0,1.6,0,2.4,0c36.7-0.9,68.2-22.5,83.3-53.6l-106.8-82
			C512.4,213.5,484.8,237.9,474.3,270.9z"/>
	</g>
	<path fill="#1C0C0F" d="M652.4,296l64.8,40.1c4.4,2.7,4.3,9.1-0.2,11.7v0c-16.8,9.5-37.5,9-53.9-1.2l-30.7-19.3L652.4,296z"/>
	<path fill="#515750" d="M560.7,222.6L560.7,222.6c-3.8-3.4-8.8-5.5-14.4-5.5c-11.9,0-21.5,9.6-21.5,21.5c0,8.3,4.7,15.5,11.6,19.1
		l0,0l104.9,52c9.5,4.7,21,2.3,27.8-5.8v0L560.7,222.6z"/>
	<path fill="#1C0C0F" d="M459.8,198.2H474v17.5h-30.7v-1C443.3,205.6,450.7,198.2,459.8,198.2z"/>
	<circle fill="#1C0C0F" cx="497.8" cy="206.9" r="29.7"/>
	<g>
		<path fill="#FFFFFF" d="M500,211.5c-7,2.7-14.4,2-20.6-1.2c0.1,0.2,0.1,0.4,0.2,0.6c3.7,9.7,14.6,14.6,24.3,10.9
			c9.7-3.7,14.6-14.6,10.9-24.3c-0.1-0.2-0.2-0.4-0.3-0.6C512.2,203.4,507,208.8,500,211.5z"/>
	</g>
	<circle fill="#F9FAEF" cx="496.9" cy="198.2" r="6.4"/>
</g>
<g>
	
		<rect x="844.9" y="324.3" transform="matrix(0.8448 -0.5351 0.5351 0.8448 -54.852 509.1401)" fill="#734E30" width="10.7" height="49.6"/>
	<rect x="833.4" y="365.6" fill="#734E30" width="69.4" height="8.7"/>
	<path fill="#9B5E34" d="M902.8,365.6h1.7c3.9,0,7,3.1,7,7v1.7h-8.8V365.6z"/>
	<path fill="#9B5E34" d="M831.7,365.6h1.7v8.8h-8.8v-1.7C824.6,368.7,827.8,365.6,831.7,365.6z"/>
	<circle fill="#9B5E34" cx="852.2" cy="264.6" r="74.4"/>
	<path fill="#EB9347" d="M1015.7,350.7l-0.6,0.3l-36.6-81.6l10.6-4.8l32.1,71.6C1023.7,341.7,1021.2,348.2,1015.7,350.7z"/>
	<circle fill="#9B5E34" cx="978.5" cy="251.3" r="27"/>
	<path fill="#9B5E34" d="M914.1,223.4c0,0,15.7,15.4,48.9,5.8l-3.2,41.7c0,0-23.7-3.9-40.2,25.2L914.1,223.4z"/>
	<circle fill="#1C0C0F" cx="981.4" cy="246.5" r="4.1"/>
</g>
<g>
	<path fill="#EB9347" d="M1259.7,452.5h12c0-6.4-5.2-11.7-11.7-11.7h-2.8v-31.3h-14.1v31.3h-2.8c-6.4,0-11.7,5.2-11.7,11.7h13.2
		l8.9,14.8L1259.7,452.5z"/>
	<path fill="#EB9347" d="M1150.6,452.5h-12c0-6.4,5.2-11.7,11.7-11.7h2.8v-31.3h14.1v31.3h2.8c6.4,0,11.7,5.2,11.7,11.7h-13.2
		l-8.9,14.8L1150.6,452.5z"/>
	<path fill="#1C0C0F" d="M1278.5,372.1l-13.8-128.6h0c-2.3-30.8-28.1-55.1-59.5-55.1c-31.4,0-57.1,24.3-59.5,55.1h0l-13.8,128.6
		c-2.8,25.8,17.4,48.3,43.4,48.3h29.9h29.9C1261,420.4,1281.3,397.9,1278.5,372.1z"/>
	<path fill="#1C0C0F" d="M1324.7,334.1l-62.9-106.6c0-0.1-0.1-0.2-0.2-0.3l-0.5-0.8l0,0c-2.6-4.1-6.7-7.4-11.8-8.8
		c-10.9-3.1-22.3,3.2-25.5,14.2c-1.7,6.1-0.5,12.4,2.8,17.2l0,0l0,0c0.5,0.7,1,1.3,1.5,1.9l62,79.7c8,10.3,22.4,13.1,33.6,6.5l0,0
		C1325,336.5,1325.3,335.2,1324.7,334.1z"/>
	<path fill="#1C0C0F" d="M1085.6,334.1l62.9-106.6c0-0.1,0.1-0.2,0.2-0.3l0.5-0.8l0,0c2.6-4.1,6.7-7.4,11.8-8.8
		c10.9-3.1,22.3,3.2,25.5,14.2c1.7,6.1,0.5,12.4-2.8,17.2l0,0l0,0c-0.5,0.7-1,1.3-1.5,1.9l-62,79.7c-8,10.3-22.4,13.1-33.6,6.5l0,0
		C1085.3,336.5,1085,335.2,1085.6,334.1z"/>
	<circle fill="#1C0C0F" cx="1205.1" cy="180.9" r="38.1"/>
	<path fill="#EB9347" d="M1194.9,196.9L1194.9,196.9l10.2,16.9l10.2-16.9v0C1210.7,189.2,1199.6,189.2,1194.9,196.9z"/>
	<circle fill="#FFFFFF" cx="1223.1" cy="182.1" r="5.4"/>
	
		<ellipse transform="matrix(0.8826 0.47 -0.47 0.8826 220.9007 -557.5143)" fill="#FFFFFF" cx="1226.9" cy="163.6" rx="3.8" ry="8.3"/>
	<circle fill="#FFFFFF" cx="1187.2" cy="182.1" r="5.4"/>
	
		<ellipse transform="matrix(-0.8826 0.47 -0.47 -0.8826 2304.7512 -248.1907)" fill="#FFFFFF" cx="1183.4" cy="163.6" rx="3.8" ry="8.3"/>
	<path fill="#F9FAEF" d="M1274.6,372.3l-7.8-72.3c-2-19-11-36.6-25.1-49.4v0l-14.4-13.1c-5.2-6.6-13.2-10.8-22.2-10.8
		c-9,0-17,4.2-22.2,10.8l-14.4,13.1v0c-14.1,12.9-23.1,30.4-25.1,49.4l-7.8,72.3c-2.6,24.4,16.5,45.8,41.1,45.8h28.3h28.3
		C1258.1,418.1,1277.2,396.8,1274.6,372.3z"/>
</g>
<g>
	<path fill="#EB9347" d="M923.2,818.4h-32.5l-2.9-41.5l-17.6,1.2l2.9,40.3h-10.4c-6.3,0-11.4,5.1-11.4,11.4v0.3h11.4h60.6h11.4v-0.3
		C934.5,823.5,929.4,818.4,923.2,818.4z"/>
	<path fill="#624732" d="M950.3,652.7c-3.5-2.5-7.3-4.7-11.4-6.4c-1.5-0.7-3.1-1.2-4.7-1.8c-7.2-3.7-12.2-11.2-12.2-19.9
		c0-12.4,10-22.4,22.4-22.4c0.8,0,1.6,0,2.3,0.1c-5.9-4.8-13.5-7.7-21.8-7.7c-19.1,0-34.6,15.5-34.6,34.6c0,5.8,1.4,11.2,4,16
		c2.1,4,5,7.6,8.5,10.5c2,1.7,4.3,3.2,6.7,4.4c14.6,11,24,28.4,24,48.1c0,22.5-12.4,42.1-30.6,52.4c4,0.8,8.1,1.3,12.4,1.3
		c33.3,0,60.2-27,60.2-60.2C975.5,681.5,965.6,663.6,950.3,652.7z"/>
	<path fill="#008B45" d="M950.3,652.7c-3.5-2.5-7.3-4.7-11.4-6.4c-1.5-0.7-3.1-1.2-4.7-1.8c-7.2-3.7-12.2-11.2-12.2-19.9
		c0-12.4,10-22.4,22.4-22.4c0.8,0,1.6,0,2.3,0.1c-5.9-4.8-13.5-7.7-21.8-7.7c-6.2,0-12,1.6-17,4.5c-10.5,5.9-17.5,17.2-17.5,30.1
		c0,5.8,1.4,11.2,4,16c1.3,2.5,2.9,4.8,4.7,6.9c1.2,1.3,2.4,2.5,3.7,3.6c2,1.7,4.3,3.2,6.7,4.4c6.3,4.7,11.5,10.6,15.6,17.4
		c5.8,2.4,12.1,3.7,18.8,3.7c9.2,0,17.7-2.5,25-6.9C964.5,665.7,958.1,658.3,950.3,652.7z"/>
	<path fill="#FECD07" d="M982.6,645.2L932,624.6l5.8-14.2l44.3,18.1c5.4,2.2,8.1,8.4,5.8,13.9l-0.3,0.8
		C986.8,645.1,984.5,646,982.6,645.2z"/>
	<circle fill="#008B45" cx="928.7" cy="614.8" r="21.8"/>
	<path fill="#A89681" d="M894.5,672.4c-8.3,0-16.2,1.8-23.3,5.1l0,0l-124.5,54.1c-3.9,0-7.2,3.2-7.2,7.2c0,3.7,2.8,6.8,6.5,7.1
		l131,35.6c1.9,0.6,3.8,1.1,5.7,1.6l0.1,0l0,0c3.8,0.8,7.7,1.2,11.7,1.2c30.9,0,56-25.1,56-56C950.4,697.5,925.4,672.4,894.5,672.4z
		"/>
	<path fill="#624732" d="M871.6,672.4c-5.8,0-11.3,1.3-16.3,3.6l0,0l-86.8,37.7c-2.8,0-5,2.2-5,5c0,2.6,2,4.7,4.5,5l91.3,24.8
		c1.3,0.4,2.6,0.8,4,1.1l0.1,0l0,0c2.6,0.6,5.3,0.9,8.1,0.9c21.6,0,39-17.5,39-39S893.1,672.4,871.6,672.4z"/>
	<circle cx="936.3" cy="608.7" r="3.4"/>
</g>
<g>
	<path fill="#1C0C0F" d="M1344.9,642.1l-85.4,17.8l-1.8-8.6l77.2-16.1c4.5-0.9,8.9,2,9.9,6.5L1344.9,642.1z"/>
	<circle fill="#7FB742" cx="1244.7" cy="668.1" r="26.1"/>
	<path fill="#4BB857" d="M1155.9,773.3l-48.4,34.5c-2.9,2.1-2.8,6.4,0.2,8.3l0,0c5.1,3.3,11.4,4.1,17.2,2.3l76-23.7L1155.9,773.3z"
		/>
	<path fill="#1C0C0F" d="M1258,792.9c-2.7,0-5.2,0.6-7.4,1.7l-10.1-16.1l-4.5,2.8l10.2,16.3c-3.3,3.1-5.4,7.6-5.4,12.5
		c0,3.9,1.3,7.5,3.5,10.4c-0.7-1.9-1.1-3.9-1.1-6c0-9.2,7.4-16.6,16.6-16.6c6.9,0,12.8,4.2,15.3,10.1
		C1274,799.5,1266.8,792.9,1258,792.9z"/>
	<g>
		<path fill="#7FB742" d="M1248.4,652.9l-97.6,127c13.1,9.4,29.2,15,46.6,15c44.3,0,80.1-35.9,80.1-80.1
			C1277.6,689.8,1266.2,667.6,1248.4,652.9z"/>
	</g>
	<path fill="#4BB857" d="M1233.4,690.2L1118.7,623c-3.7-2.2-8.5-0.9-10.7,2.8l0,0c-13.2,22.5-5.6,51.5,16.9,64.7l80.6,47.3
		c13.1,7.7,30,3.3,37.7-9.8C1250.9,714.8,1246.5,697.9,1233.4,690.2z"/>
	<circle fill="#1C0C0F" cx="1249.2" cy="656.3" r="4.8"/>
</g>
<g>
	
		<rect x="260.4" y="775.9" transform="matrix(0.9865 -0.1639 0.1639 0.9865 -127.0265 54.2007)" fill="#EB9347" width="9.1" height="42.2"/>
	<rect x="244.3" y="814.9" fill="#EB9347" width="59" height="7.4"/>
	<path fill="#EB9347" d="M303.3,814.9h0.4c3.9,0,7,3.1,7,7v0.4h-7.5V814.9z"/>
	<path fill="#EB9347" d="M243.9,814.9h0.4v7.5h-7.5v-0.4C236.9,818.1,240,814.9,243.9,814.9z"/>
	<path fill="#1C0C0F" d="M259.6,780h-1.4c-6.6,0-12-5.4-12-12v-32.5h25.4V768C271.6,774.6,266.3,780,259.6,780z"/>
	<path fill="#1C0C0F" d="M344.9,552c0-14.9-12.1-27-27-27c-8.9,0-16.8,4.3-21.7,11l-48.5,54.1l0,0l-0.3,0.3
		c-0.1,0.1-0.2,0.2-0.3,0.3L145.7,702.2c12.2,21.8,32.3,38.6,56.5,46.6c9.9,3.3,20.6,5.1,31.6,5.1c55.8,0,101-45.2,101-101v-79.9
		C340.9,568.1,344.9,560.5,344.9,552z"/>
	<g>
		<path fill="#FFFFFF" d="M334.8,573.1c6.2-4.9,10.1-12.6,10.1-21.1c0-9.5-4.9-17.9-12.4-22.7c-31,5.8-54.4,33-54.4,65.6
			c0,33.3,24.4,60.9,56.3,65.9c0.2-2.6,0.3-5.2,0.3-7.9V573.1z"/>
	</g>
	<g>
		<path fill="#F6D80E" d="M332.5,529.3c-17.8,3.3-33.1,13.7-42.9,28.2c7,4.3,15.2,6.7,23.9,6.7c12.1,0,23.1-4.7,31.4-12.4
			C344.8,542.4,339.9,534.1,332.5,529.3z"/>
	</g>
	<path fill="#1C0C0F" d="M309.2,633.8c0.2-0.4,0.4-0.8,0.6-1.2l0,0l0,0c2.4-5,3.7-10.6,3.7-16.4c0-21.1-17.1-38.1-38.1-38.1
		c-11,0-20.8,4.6-27.8,12.1l0,0l-0.3,0.3c-0.1,0.1-0.2,0.2-0.3,0.3L55.1,801.9c8,8,20.3,10,30.4,5l166.1-82.6l0,0
		c9.5-4.3,17.3-11.6,22.2-20.7l0,0l0.1-0.3c0.3-0.6,0.6-1.2,0.9-1.8L309.2,633.8z"/>
	<g>
		<path fill="#EB9347" d="M413.6,528.1h-83v36.1h86.8v-35.7C416.1,528.3,414.8,528.1,413.6,528.1z"/>
		<path fill="#1C0C0F" d="M435.2,549.8c0-10.7-7.7-19.5-17.9-21.3v35.7h17.9V549.8z"/>
	</g>
	<circle fill="#1C0C0F" cx="317.9" cy="543.7" r="6.1"/>
	<path fill="#EB9347" d="M368.9,512.9h-24c-7.9,0-14.4,6.4-14.4,14.4v0.9h34c5.2,0,9.4-4.2,9.4-9.4v-0.9
		C373.9,515.1,371.7,512.9,368.9,512.9z"/>
</g>
<g>
	<g>
		<path fill="#EB9347" d="M698,561.7c-0.2-20.9-17.2-37.8-38.1-37.8h-16.6v27.4h28.5C681.9,551.2,691.2,555.2,698,561.7z"/>
	</g>
	<g>
		
			<rect x="595.4" y="776.9" transform="matrix(0.9865 -0.1639 0.1639 0.9865 -122.673 109.1103)" fill="#EB9347" width="9.1" height="42.2"/>
		<rect x="579.3" y="816" fill="#EB9347" width="59" height="7.4"/>
		<path fill="#EB9347" d="M638.3,816h0.4c3.9,0,7,3.1,7,7v0.4h-7.5V816z"/>
		<path fill="#EB9347" d="M578.9,816h0.4v7.5h-7.5V823C571.8,819.1,575,816,578.9,816z"/>
		<path fill="#734E30" d="M594.6,781h-1.4c-6.6,0-12-5.4-12-12v-32.5h25.4V769C606.6,775.7,601.2,781,594.6,781z"/>
		<path fill="#734E30" d="M655.5,538.8c-3-14.6-17.2-24.1-31.8-21.1c-8.7,1.8-15.6,7.6-19.1,15.1l-36.8,62.7l0,0l-0.2,0.3
			c-0.1,0.1-0.1,0.2-0.2,0.4L490,725.6c16.3,19,39.4,31.5,64.6,34.5c10.4,1.2,21.2,0.9,32-1.3c54.6-11.1,90-64.4,78.9-119
			l-15.9-78.3C654.8,555.4,657.1,547.2,655.5,538.8z"/>
		<g>
			<path fill="#FFFFFF" d="M655.5,538.8c-3-14.6-17.2-24.1-31.8-21.1c-8.7,1.8-15.6,7.6-19.1,15.1l-36.8,62.7l0,0l-0.2,0.3
				c0,0,0,0,0,0.1c13,17.8,33.9,29.3,57.6,29.3c13,0,25.2-3.5,35.7-9.6l-11-54.1C654.8,555.4,657.1,547.2,655.5,538.8z"/>
		</g>
		<path fill="#9B5E34" d="M636.7,626.1c0.1-0.4,0.2-0.8,0.4-1.3l0,0l0,0c1.3-5.4,1.5-11.1,0.4-16.9c-4.2-20.6-24.3-34-44.9-29.8
			c-10.7,2.2-19.5,8.7-24.9,17.3l0,0l-0.2,0.3c-0.1,0.1-0.1,0.2-0.2,0.4L421.1,841.3c9.4,6.3,21.8,5.8,30.8-1.2l146.4-113.9l0,0
			c8.4-6.1,14.6-14.8,17.6-24.7l0,0l0.1-0.3c0.2-0.7,0.4-1.3,0.6-2L636.7,626.1z"/>
		<circle fill="#1C0C0F" cx="627.3" cy="536" r="6.1"/>
	</g>
</g>
</svg>
